<svg width="154" height="65" viewBox="0 0 154 65" fill="none" xmlns="http://www.w3.org/2000/svg">
<path fill-rule="evenodd" clip-rule="evenodd" d="M77.607 23.0751L77.458 22.8831C77.3527 22.7744 77.2234 22.6918 77.0806 22.6418C76.9377 22.5918 76.7852 22.5758 76.635 22.5951C75.764 22.5951 74.335 23.0111 74.207 24.1071C74.086 24.8721 73.957 26.1721 73.865 27.5591C73.212 32.7931 71.665 35.6891 70.84 35.6891C70.7 35.6915 70.5612 35.6621 70.4343 35.603C70.3073 35.5439 70.1954 35.4567 70.107 35.3481C69.039 34.1361 68.924 30.1301 69.766 23.4481L69.783 23.1761L69.634 23.0031C69.5311 22.9065 69.4083 22.8337 69.2743 22.7896C69.1402 22.7456 68.9982 22.7314 68.858 22.7481C67.976 22.7481 66.528 23.1681 66.398 24.3011C66.1358 26.5668 66.0726 28.8512 66.209 31.1281C65.616 33.0281 64.287 36.1121 61.892 36.1121C61.57 36.1035 61.2531 36.0293 60.9608 35.894C60.6685 35.7586 60.4069 35.5651 60.192 35.3251C59.0583 33.8649 58.5269 32.0259 58.707 30.1861C58.869 26.4861 59.99 23.5811 61.261 23.5811C61.3865 23.5665 61.5136 23.5852 61.6294 23.6355C61.7453 23.6857 61.8459 23.7656 61.921 23.8671C62.321 24.4371 62.148 25.8251 61.767 26.8951L61.682 27.1211C61.5776 27.2774 61.5148 27.4578 61.4994 27.6452C61.484 27.8325 61.5165 28.0208 61.594 28.1921C61.6987 28.3229 61.8441 28.4152 62.0071 28.4541C62.1701 28.4931 62.3415 28.4765 62.494 28.4071C63.24 28.2671 64.763 27.4671 64.894 26.4691C65.0346 25.1533 64.6668 23.8335 63.866 22.7801C63.5821 22.4764 63.2365 22.2371 62.8523 22.0783C62.4682 21.9194 62.0545 21.8447 61.639 21.8591C58.389 21.8591 55.749 25.6591 55.497 30.6991C55.486 31.0221 55.489 31.3351 55.497 31.6401C54.61 35.1081 53.883 36.3191 53.597 36.5791C53.359 36.1791 53.045 34.2581 54.03 29.0891L54.05 28.8121L53.901 28.6391C53.7849 28.534 53.6476 28.4549 53.4985 28.4071C53.3493 28.3593 53.1916 28.344 53.036 28.3621C52.5512 28.306 52.0616 28.4153 51.6467 28.6724C51.2318 28.9294 50.9158 29.319 50.75 29.7781C50.6999 30.0669 50.6665 30.3584 50.65 30.6511L50.626 30.9661C50.073 34.0661 48.962 35.6881 48.149 35.6881C47.9714 35.6551 47.8134 35.5548 47.708 35.4081C47.04 34.6531 46.465 32.6831 46.778 30.1411C47.187 26.7251 48.578 24.4301 50.227 24.4301C50.4091 24.4049 50.5945 24.4218 50.769 24.4793C50.9436 24.5369 51.1026 24.6336 51.234 24.7621C51.3492 25.057 51.4019 25.3727 51.3888 25.689C51.3757 26.0054 51.2971 26.3156 51.158 26.6001L51.108 26.7351C50.9874 26.914 50.9136 27.1204 50.8933 27.3353C50.8731 27.5502 50.907 27.7667 50.992 27.9651C51.1007 28.0907 51.245 28.1802 51.4057 28.2218C51.5665 28.2635 51.7361 28.2552 51.892 28.1981C52.643 28.0581 54.162 27.1721 54.292 26.1671C54.3277 25.7321 54.2733 25.2945 54.1323 24.8816C53.9912 24.4686 53.7664 24.0892 53.472 23.7671C53.0963 23.3996 52.6475 23.1152 52.1549 22.9322C51.6622 22.7493 51.1365 22.6719 50.612 22.7051C47.785 22.7051 44.247 24.8441 43.592 30.9051C42.533 34.4241 41.186 36.0641 40.61 36.0641C39.848 36.0641 38.654 33.8121 38.358 28.8091C40.7226 24.7767 42.5281 20.4417 43.725 15.9231C44.549 12.3761 45.102 6.61706 43.75 4.91406C43.6248 4.74206 43.4609 4.60187 43.2716 4.50478C43.0823 4.40769 42.8728 4.35641 42.66 4.35506C38.713 4.35506 35.533 16.5081 34.991 25.2231C34.9104 26.5683 34.9298 27.9177 35.049 29.2601C34.165 33.4461 32.5 36.1121 31.734 36.1121C31.018 36.1121 29.895 33.9771 29.612 29.2321C31.8636 25.3913 33.5833 21.2626 34.724 16.9591C35.51 13.5751 36.034 8.07906 34.742 6.45106C34.6204 6.28453 34.4614 6.14885 34.2779 6.05489C34.0943 5.96094 33.8912 5.91133 33.685 5.91006C29.911 5.91006 26.874 17.4991 26.357 25.8101C26.009 31.8191 27.662 35.8321 29.183 37.4441C29.4389 37.7553 29.7558 38.0108 30.1142 38.1949C30.4727 38.3789 30.865 38.4875 31.267 38.5141C33.109 38.5141 34.767 36.0141 35.841 33.4071C36.803 36.5311 38.441 38.5351 40.122 38.5351C41.404 38.5351 42.783 37.2981 43.998 35.0951C44.726 37.1541 46.156 38.2221 47.392 38.2221C47.446 38.2221 47.501 38.2221 47.562 38.2151C48.741 38.1151 49.869 37.2001 50.82 35.6091C51.204 37.7511 52.035 39.0241 53.12 39.0241C54.438 39.0241 55.549 37.1791 56.349 35.2531C56.7568 36.2271 57.4351 37.0639 58.3037 37.6643C59.1723 38.2647 60.1948 38.6037 61.25 38.6411C63.314 38.6411 65.289 37.1681 66.79 34.5511C67.713 37.5951 69.383 38.0891 70.369 38.0891C71.355 38.0891 72.314 37.3771 73.183 36.0401L73.154 36.3171C70.6779 39.1366 68.7663 42.4055 67.523 45.9461C66.473 48.8811 66.499 52.0081 67.586 53.5511C67.7559 53.824 67.9911 54.0503 68.2705 54.2094C68.5499 54.3685 68.8646 54.4553 69.186 54.4621C71.037 54.4621 73.835 51.9281 76.765 30.0231C77.225 26.8411 77.565 23.3701 77.565 23.3701L77.607 23.0751ZM29.621 25.0631C29.981 18.8981 32.036 10.6081 33.07 9.21706C33.361 10.0961 33.411 13.2901 32.43 17.0651C31.7005 19.7992 30.7614 22.4732 29.621 25.0631ZM38.362 24.5751C38.721 18.0051 40.936 9.10706 42.024 7.74906C42.345 8.61206 42.424 12.0001 41.368 16.0491C40.5891 18.9648 39.584 21.8155 38.362 24.5751ZM72.63 40.1661C71.515 47.8451 70.288 51.0721 69.725 51.2991C69.6592 51.2801 69.5978 51.2482 69.5444 51.2053C69.4911 51.1624 69.4467 51.1093 69.414 51.0491C68.948 50.3791 68.8 48.7211 69.782 46.0761C70.548 44.0228 71.5013 42.0445 72.63 40.1661ZM59.581 42.3661C59.3989 42.1886 59.1628 42.0771 58.91 42.0491C58.7556 42.0641 58.6096 42.1261 58.4915 42.2268C58.3735 42.3275 58.2892 42.462 58.25 42.6121C58.1772 42.774 58.0958 42.9319 58.006 43.0851C57.408 44.1621 55.472 44.7121 52.25 44.7121C47.8249 44.544 43.4188 44.0426 39.069 43.2121C33.769 42.3121 27.727 41.3511 22.763 41.0051C23.8308 35.8323 24.5077 30.5865 24.788 25.3121C24.788 24.7181 23.888 24.5851 23.568 24.5851C23.168 24.5851 21.861 24.7501 21.783 26.8731L21.65 29.4261C21.184 31.9401 19.783 36.1871 15.634 36.3901C15.5874 36.3901 15.541 36.3918 15.4948 36.3936C15.4488 36.3953 15.4029 36.3971 15.357 36.3971C14.583 36.41 13.8158 36.2516 13.1102 35.9331C12.4047 35.6147 11.7783 35.1441 11.276 34.5551C9.31003 32.3321 8.48203 28.1871 9.06103 23.4671C9.26366 21.8378 9.6247 20.2322 10.139 18.6731C16.762 18.5211 23.075 15.5141 24.611 11.7431C24.9077 11.1201 25.0452 10.4332 25.0112 9.74399C24.9771 9.05479 24.7727 8.3848 24.416 7.79406C23.516 6.45406 21.699 5.85806 19.466 6.15806C14.842 6.75806 10.252 10.6371 7.67803 16.0971C4.76703 15.2741 2.26203 12.7971 2.89803 9.45206C3.81603 4.54706 10.331 2.94406 12.473 2.94406C12.6845 2.93202 12.8964 2.95569 13.1 3.01406C13.3971 3.12554 13.7117 3.18311 14.029 3.18406C14.2692 3.22601 14.5165 3.18322 14.7287 3.06302C14.9408 2.94282 15.1046 2.75266 15.192 2.52506C15.355 1.80406 14.375 1.33806 13.997 1.15906C13.6285 1.02497 13.2367 0.966473 12.845 0.987059C9.92603 0.987059 1.50203 3.02506 0.190033 9.58706C-0.0217339 10.474 -0.0496222 11.3949 0.108088 12.293C0.265797 13.1911 0.605763 14.0474 1.10703 14.8091C2.49303 16.6507 4.51112 17.9148 6.77303 18.3581C6.15031 20.1369 5.73948 21.983 5.54903 23.8581C5.00903 28.8281 6.08703 33.2231 8.50503 35.9181C9.30651 36.8226 10.2942 37.543 11.4003 38.0299C12.5063 38.5169 13.7047 38.7588 14.913 38.7391H15.213C17.4219 38.6593 19.5113 37.7161 21.032 36.1121C20.8398 37.7214 20.5654 39.3198 20.21 40.9011C19.8474 40.8951 19.494 40.8921 19.15 40.8921C13.219 40.8921 9.90503 42.1191 8.72203 44.7491C8.38504 45.438 8.23362 46.2029 8.28272 46.9682C8.33183 47.7336 8.57976 48.4729 9.00203 49.1131C9.57826 49.9668 10.3558 50.6656 11.2659 51.1479C12.1761 51.6301 13.191 51.8808 14.221 51.8781C14.5453 51.8781 14.869 51.8516 15.189 51.7991C18.41 51.2231 20.656 48.4541 22.237 43.0991C27.7282 43.4632 33.1848 44.234 38.562 45.4051C39.3415 45.5649 40.1261 45.7325 40.9106 45.9001L40.912 45.9004L41.501 46.0261C46.842 47.1631 51.887 48.2361 55.556 48.2361C57.666 48.2361 59.128 47.8711 60.022 47.1241C60.3572 46.8703 60.6258 46.539 60.8048 46.1586C60.9839 45.7782 61.068 45.3601 61.05 44.9401C61.0126 44.4289 60.8613 43.9326 60.6071 43.4875C60.3529 43.0425 60.0023 42.66 59.581 42.3681V42.3661ZM15.493 49.2011C15.142 49.3241 14.773 49.3879 14.401 49.3901C13.9317 49.4026 13.4677 49.2885 13.0577 49.0597C12.6477 48.831 12.3069 48.496 12.071 48.0901C11.8346 47.6141 11.7312 47.0831 11.7718 46.5532C11.8125 46.0234 11.9957 45.5143 12.302 45.0801C12.843 44.2031 14.568 43.1661 19.655 43.0801C18.614 46.5271 17.213 48.5831 15.493 49.2011ZM18.824 8.59206C19.0998 8.54102 19.3796 8.51425 19.66 8.51206C19.9415 8.48431 20.2254 8.52606 20.4869 8.63364C20.7485 8.74121 20.9796 8.91133 21.16 9.12906C21.3183 9.48016 21.39 9.86411 21.3691 10.2487C21.3482 10.6332 21.2354 11.0072 21.04 11.3391C19.731 14.0831 14.99 16.0651 11.04 16.3781C12.988 12.2121 16.057 9.12006 18.824 8.59206Z" fill="#8667FF"/>
<path fill-rule="evenodd" clip-rule="evenodd" d="M126.034 25.6714C126.034 25.7016 126.035 25.7322 126.035 25.7631L126.034 25.6714Z" fill="#8667FF"/>
<path fill-rule="evenodd" clip-rule="evenodd" d="M110.838 38.065C110.132 37.808 109.402 36.135 109.938 29.622C110.226 25.915 110.345 23.771 109.453 22.807C109.294 22.6383 109.101 22.5055 108.887 22.4175C108.672 22.3296 108.442 22.2885 108.21 22.297C106.068 22.297 104.004 24.904 102.567 28.029C102.593 25.7133 102.747 23.4008 103.028 21.102C105.278 20.0225 107.086 18.199 108.146 15.94C109.965 12.366 109.73 8.55903 108.557 6.64603C108.403 6.32766 108.168 6.05474 107.877 5.85389C107.586 5.65304 107.247 5.53112 106.895 5.50003C104.179 5.50003 101.666 11.187 100.462 20.023C99.2752 20.3004 98.0436 20.3266 96.846 20.1C96.5433 20.0467 96.2456 19.9681 95.956 19.865C96.8403 19.2481 97.5655 18.4301 98.0721 17.4783C98.5786 16.5265 98.8521 15.4681 98.87 14.39C98.9535 13.5833 98.8713 12.7679 98.6283 11.9941C98.3853 11.2203 97.9867 10.5043 97.457 9.89003C96.7664 9.20362 95.9442 8.6638 95.0398 8.30294C94.1354 7.94208 93.1675 7.76762 92.194 7.79003C92.075 7.79003 91.954 7.78403 91.832 7.78403C87.382 7.78403 82.681 10.184 82.304 14.775C81.919 18.809 85.497 21.16 88.956 23.433L89.656 23.89C92.962 26.109 95.891 28.417 95.419 32.238C95.036 35.372 91.085 37.896 86.877 37.57C85.8814 37.5197 84.9065 37.2664 84.0123 36.8257C83.1181 36.3849 82.3234 35.766 81.677 35.007C81.0998 34.2928 80.6749 33.4679 80.4286 32.5832C80.1823 31.6985 80.1199 30.7728 80.245 29.863C80.511 27.887 81.373 26.376 83.338 24.453C83.5353 24.3145 83.6881 24.1217 83.7781 23.8981C83.8681 23.6745 83.8913 23.4296 83.845 23.193C83.76 23.016 83.6107 22.878 83.4276 22.8071C83.2444 22.7361 83.0412 22.7375 82.859 22.811C81.7817 23.0192 80.7554 23.436 79.838 24.038C78.4352 25.4058 77.6154 27.2629 77.55 29.221C77.313 33.435 79.479 38.778 86.364 39.966C87.0548 40.0844 87.7542 40.1443 88.455 40.145C94.061 40.145 98.518 36.368 98.824 31.358C99.095 26.658 95.472 24.019 92.052 21.908L91.677 21.682L91.6742 21.6803C88.3573 19.671 85.2242 17.773 85.712 14.047C86.097 11.198 88.821 9.92203 91.349 9.92203C91.528 9.92203 91.707 9.92803 91.888 9.94003C94.688 10.12 96.256 11.722 96.297 14.453C96.3574 15.575 95.9823 16.6769 95.25 17.529C94.9986 17.8161 94.6461 17.9952 94.266 18.029C94.0786 18.0106 93.9004 17.9387 93.7527 17.8219C93.6051 17.705 93.4941 17.5482 93.433 17.37C93.2065 16.6636 93.1844 15.9075 93.369 15.189L93.451 14.939C93.5436 14.7839 93.5956 14.608 93.6024 14.4275C93.6092 14.247 93.5706 14.0677 93.49 13.906C93.4274 13.8231 93.3455 13.7566 93.2514 13.7124C93.1573 13.6681 93.0539 13.6474 92.95 13.652C92.8188 13.6556 92.6884 13.6734 92.561 13.705C91.9615 13.8521 91.4211 14.1787 91.0123 14.6412C90.6034 15.1037 90.3455 15.68 90.273 16.293C90.187 18.671 91.615 21.413 95.879 21.982C97.3306 22.1909 98.8055 22.1775 100.253 21.942C99.981 24.442 99.806 27.092 99.732 29.833C99.7033 31.209 99.6795 32.1044 99.6608 32.7822L99.6531 33.0589L99.6531 33.0601L99.651 33.133L99.6487 33.2164C99.6202 34.2426 99.605 34.789 99.605 36.208C99.605 37.454 99.789 37.897 100.826 37.897C101.396 37.897 102.374 37.419 102.426 35.689C103.456 28.866 106.275 25.094 107.002 25.056C107.091 25.7476 107.071 26.4488 106.942 27.134C106.842 28.083 106.722 29.264 106.692 30.684C106.567 36.527 107.698 39.495 110.144 39.759C111.355 39.908 111.58 39.359 111.626 39.135C111.652 38.8913 111.585 38.6468 111.439 38.4497C111.294 38.2526 111.08 38.1172 110.839 38.07L110.838 38.065ZM106.339 8.66603C105.794 8.91203 104.325 12.477 103.35 18.751C104.401 17.9627 105.247 16.9326 105.815 15.748C106.953 13.7167 107.246 11.3196 106.631 9.07403C106.581 8.90948 106.479 8.766 106.339 8.66603Z" fill="#F64F4F"/>
<path fill-rule="evenodd" clip-rule="evenodd" d="M150.502 45.656C148.76 43.801 146.274 43.576 143.502 43.576H143.266C140.944 41.0183 137.733 39.4443 134.289 39.176C130.789 38.949 127.926 38.951 125.454 40.007C125.526 39.4231 125.588 38.6806 125.641 38.0504L125.663 37.783C126.189 37.9588 126.745 38.0305 127.298 37.994C130.366 37.994 133.585 35.41 133.865 29.746C133.998 26.621 133.485 24.335 132.38 23.183C132.133 22.9127 131.833 22.6962 131.499 22.547C131.165 22.3979 130.803 22.3192 130.437 22.316C128.79 22.316 127.248 23.759 126.043 26.372C126.043 26.1577 126.039 25.9619 126.035 25.78C126.034 25.7192 126.033 25.6599 126.032 25.602L126.031 25.5321C126.023 25.0851 126.017 24.7083 126.017 24.289C126.017 23.184 125.964 22.558 124.88 22.558C124.677 22.5625 124.477 22.6072 124.291 22.6896C124.106 22.772 123.938 22.8904 123.799 23.038C123.571 23.3027 123.4 23.6113 123.295 23.9448C123.191 24.2783 123.156 24.6296 123.193 24.977C123.22 26.361 123.225 27.762 123.209 29.258C122.709 31.503 121.804 33.269 120.87 33.958C121.419 32.5926 121.793 31.1632 121.983 29.704C122.399 26.682 121.941 24.066 120.756 22.704C120.529 22.4015 120.225 22.1659 119.876 22.0219C119.526 21.8779 119.144 21.831 118.77 21.886C117.941 22.0457 117.194 22.4913 116.66 23.145C116.535 22.9386 116.335 22.7881 116.103 22.7247C115.87 22.6612 115.622 22.6896 115.409 22.804C112.828 23.826 111.187 26.831 111.019 30.842C110.917 31.9154 111.031 32.9984 111.355 34.0268C111.679 35.0552 112.206 36.0081 112.905 36.829C113.306 37.2668 113.793 37.6172 114.335 37.8581C114.878 38.099 115.464 38.2253 116.058 38.229C116.797 38.19 117.515 37.9727 118.152 37.5959C118.788 37.2191 119.324 36.6939 119.714 36.065C120.386 35.9987 121.035 35.7845 121.615 35.4379C122.194 35.0912 122.69 34.6207 123.066 34.06C122.947 36.553 122.756 38.999 122.499 41.36C120.279 43.1024 118.501 45.3428 117.308 47.9C115.326 51.834 115.544 55.446 116.586 57.139C116.745 57.4544 116.983 57.723 117.277 57.9183C117.571 58.1137 117.911 58.229 118.263 58.253C121.352 58.253 123.834 49.679 125.04 42.238C127.593 40.7597 130.529 40.074 133.473 40.268C135.917 40.2593 138.3 41.0237 140.283 42.452C138.719 42.9353 137.33 43.8634 136.285 45.1229C135.239 46.3824 134.583 47.9189 134.396 49.545C134.26 50.3209 134.289 51.1168 134.483 51.8803C134.677 52.6439 135.03 53.3578 135.519 53.975C135.954 54.4664 136.498 54.8486 137.108 55.0909C137.717 55.3332 138.376 55.4288 139.029 55.37C139.853 55.349 140.664 55.1601 141.413 54.8148C142.162 54.4695 142.832 53.9752 143.383 53.362C144.098 52.4755 144.63 51.4556 144.947 50.3617C145.265 49.2678 145.362 48.1217 145.232 46.99C145.174 46.042 144.97 45.1086 144.627 44.223C148.535 44.863 150.885 48.208 150.682 52.981C150.529 55.5097 149.422 57.8863 147.587 59.6319C145.751 61.3775 143.321 62.3623 140.788 62.388C137.788 62.388 135.588 61.654 134.431 60.268C134.016 59.743 133.722 59.1324 133.571 58.4801C133.42 57.8278 133.415 57.1502 133.558 56.496C133.585 56.3625 133.612 56.2453 133.636 56.142L133.641 56.118C133.708 55.9668 133.739 55.8016 133.73 55.6362C133.721 55.4709 133.673 55.31 133.589 55.167C133.525 55.0886 133.444 55.0262 133.352 54.9851C133.26 54.9439 133.159 54.925 133.058 54.93C132.928 54.9336 132.798 54.9521 132.672 54.985C131.975 55.188 131.36 55.6062 130.914 56.1798C130.469 56.7535 130.217 57.4532 130.193 58.179C130.193 61.116 133.323 64.279 140.193 64.279C147.331 64.279 152.628 59.95 153.078 53.179C153.217 51.8135 153.058 50.4341 152.613 49.1356C152.169 47.837 151.449 46.65 150.502 45.656ZM114.964 30.529C114.756 28.7047 114.954 26.8568 115.544 25.118C114.654 26.7246 114.199 28.5356 114.223 30.372C114.025 32.059 114.485 33.7575 115.509 35.113C115.743 35.4178 116.084 35.6222 116.463 35.6848C116.842 35.7474 117.231 35.6635 117.55 35.45C116.786 34.8681 116.159 34.1261 115.712 33.276C115.265 32.4259 115.01 31.4883 114.964 30.529ZM118.917 33.987C119.553 32.701 119.897 31.2904 119.925 29.856C120.082 27.407 119.65 25.758 119.18 25.26C119.131 25.1953 119.06 25.1506 118.98 25.134C118.131 25.378 117.065 27.548 117.191 30.072C117.252 31.487 117.746 33.267 118.917 33.987ZM125.859 35.566C126.266 35.8495 126.758 35.987 127.253 35.956L127.25 35.96C129.082 35.96 130.324 33.882 130.572 30.398C130.784 27.159 130.372 25.484 129.915 24.998C129.887 24.959 129.851 24.9268 129.808 24.9039C129.766 24.881 129.719 24.8681 129.671 24.866C129.031 24.866 126.976 27.744 125.923 34.539L125.859 35.566ZM118.748 54.959C118.796 54.9993 118.853 55.0284 118.914 55.044V55.048C119.498 54.764 120.957 51.429 121.995 44.791C121.149 45.768 120.429 46.8478 119.853 48.005C118.073 51.566 118.149 54.026 118.634 54.811C118.661 54.8682 118.699 54.9187 118.748 54.959ZM140.616 52.9386C140.967 52.7809 141.281 52.5514 141.538 52.265V52.269C142.062 51.6119 142.45 50.8571 142.679 50.0487C142.908 49.2403 142.975 48.3943 142.874 47.56C142.823 46.3786 142.475 45.2291 141.862 44.218C140.611 44.4136 139.456 45.0045 138.565 45.9043C137.674 46.804 137.095 47.9653 136.912 49.218C136.781 49.7506 136.766 50.3049 136.866 50.8439C136.967 51.3829 137.181 51.8943 137.495 52.344C137.729 52.6164 138.021 52.833 138.35 52.9778C138.679 53.1226 139.036 53.1921 139.395 53.181H139.501C139.886 53.179 140.266 53.0964 140.616 52.9386Z" fill="#F64F4F"/>
</svg>
